<svg width="350" height="350" viewBox="0 0 350 350" fill="none" xmlns="http://www.w3.org/2000/svg">
<path d="M33.5825 294.844L30.5069 282.723C25.0538 280.414 19.4747 278.414 13.7961 276.732L13.4079 282.365L11.8335 276.159C4.79107 274.148 0 273.263 0 273.263C0 273.263 6.46998 297.853 20.0448 316.653L35.8606 319.429L23.5737 321.2C25.2813 323.253 27.1164 325.196 29.0681 327.019C48.8132 345.333 70.8061 353.736 78.1898 345.787C85.5736 337.838 75.5526 316.547 55.8074 298.235C49.6862 292.557 41.9968 288.001 34.2994 284.415L33.5825 294.844Z" fill="#F2F2F2"/>
<path d="M62.8313 281.679L66.4685 269.714C62.9953 264.921 59.2543 260.327 55.2633 255.954L52.017 260.576L53.8792 254.45C48.8903 249.092 45.247 245.86 45.247 245.86C45.247 245.86 38.0667 270.253 39.9608 293.358L52.0639 303.903L40.628 299.072C41.0281 301.712 41.594 304.324 42.3223 306.893C49.7516 332.77 64.2317 351.323 74.6643 348.332C85.0969 345.341 87.5321 321.939 80.1029 296.063C77.7999 288.041 73.5738 280.169 68.8399 273.123L62.8313 281.679Z" fill="#F2F2F2"/>
<path d="M243.68 82.9153H241.761V30.3972C241.761 26.4054 240.974 22.4527 239.446 18.7647C237.917 15.0768 235.676 11.7258 232.852 8.90314C230.027 6.0805 226.673 3.84145 222.983 2.31385C219.292 0.786245 215.336 0 211.342 0H99.989C91.9212 0 84.1838 3.20256 78.4791 8.90314C72.7743 14.6037 69.5693 22.3354 69.5693 30.3972V318.52C69.5693 322.512 70.3562 326.465 71.8849 330.153C73.4136 333.841 75.6543 337.192 78.4791 340.015C81.3038 342.837 84.6572 345.076 88.3479 346.604C92.0386 348.131 95.9942 348.918 99.989 348.918H211.342C219.409 348.918 227.147 345.715 232.851 340.014C238.556 334.314 241.761 326.582 241.761 318.52V120.299H243.679L243.68 82.9153Z" fill="#E6E6E6"/>
<path d="M212.569 7.9054H198.035C198.703 9.54305 198.958 11.3199 198.778 13.0793C198.597 14.8387 197.986 16.5267 196.999 17.9946C196.012 19.4625 194.678 20.6652 193.116 21.4967C191.554 22.3283 189.811 22.7632 188.041 22.7632H124.249C122.479 22.7631 120.736 22.3281 119.174 21.4964C117.612 20.6648 116.279 19.462 115.291 17.9942C114.304 16.5263 113.693 14.8384 113.513 13.079C113.332 11.3197 113.587 9.54298 114.256 7.9054H100.68C94.6551 7.9054 88.8769 10.297 84.6166 14.5542C80.3563 18.8113 77.9629 24.5852 77.9629 30.6057V318.31C77.9629 324.331 80.3563 330.105 84.6166 334.362C88.8769 338.619 94.6551 341.011 100.68 341.011H212.569C218.594 341.011 224.372 338.619 228.632 334.362C232.893 330.105 235.286 324.331 235.286 318.31V30.6053C235.286 24.5848 232.892 18.811 228.632 14.554C224.372 10.297 218.594 7.9054 212.569 7.9054Z" fill="white"/>
<path d="M142.366 122.512C142.366 120.501 142.896 118.526 143.902 116.784C144.909 115.043 146.357 113.597 148.1 112.592C146.358 111.587 144.381 111.057 142.369 111.057C140.356 111.057 138.379 111.586 136.637 112.591C134.894 113.596 133.446 115.042 132.44 116.784C131.434 118.525 130.904 120.501 130.904 122.512C130.904 124.522 131.434 126.498 132.44 128.239C133.446 129.981 134.894 131.427 136.637 132.432C138.379 133.437 140.356 133.966 142.369 133.966C144.381 133.966 146.358 133.436 148.1 132.431C146.357 131.426 144.909 129.981 143.903 128.24C142.896 126.499 142.366 124.523 142.366 122.512Z" fill="#CCCCCC"/>
<path d="M156.778 122.512C156.777 120.501 157.307 118.526 158.314 116.784C159.32 115.043 160.768 113.597 162.512 112.592C160.769 111.587 158.792 111.057 156.78 111.057C154.768 111.057 152.791 111.586 151.048 112.591C149.305 113.596 147.858 115.042 146.851 116.784C145.845 118.525 145.315 120.501 145.315 122.512C145.315 124.522 145.845 126.498 146.851 128.239C147.858 129.981 149.305 131.427 151.048 132.432C152.791 133.437 154.768 133.966 156.78 133.966C158.792 133.966 160.769 133.436 162.512 132.431C160.768 131.426 159.321 129.981 158.314 128.24C157.307 126.499 156.778 124.523 156.778 122.512Z" fill="#CCCCCC"/>
<path d="M170.861 133.966C177.191 133.966 182.324 128.838 182.324 122.512C182.324 116.186 177.191 111.057 170.861 111.057C164.53 111.057 159.397 116.186 159.397 122.512C159.397 128.838 164.53 133.966 170.861 133.966Z" fill="#3056D3"/>
<path d="M190.018 158.289H123.209C122.573 158.288 121.963 158.035 121.513 157.586C121.063 157.137 120.81 156.527 120.81 155.892V89.1315C120.81 88.496 121.063 87.8866 121.513 87.4372C121.963 86.9878 122.573 86.735 123.209 86.7343H190.018C190.654 86.735 191.264 86.9878 191.714 87.4372C192.164 87.8866 192.417 88.496 192.417 89.1315V155.892C192.417 156.527 192.164 157.137 191.714 157.586C191.264 158.035 190.654 158.288 190.018 158.289ZM123.209 87.6937C122.827 87.6941 122.461 87.8457 122.191 88.1154C121.921 88.385 121.77 88.7507 121.769 89.132V155.892C121.77 156.274 121.921 156.639 122.191 156.909C122.461 157.178 122.827 157.33 123.209 157.33H190.018C190.4 157.33 190.766 157.178 191.036 156.909C191.305 156.639 191.457 156.274 191.458 155.892V89.132C191.457 88.7507 191.305 88.385 191.036 88.1154C190.766 87.8457 190.4 87.6941 190.018 87.6937H123.209Z" fill="#CCCCCC"/>
<path d="M204.936 209.464H102.471V210.423H204.936V209.464Z" fill="#CCCCCC"/>
<path d="M105.707 203.477C107.494 203.477 108.943 202.029 108.943 200.243C108.943 198.457 107.494 197.01 105.707 197.01C103.919 197.01 102.471 198.457 102.471 200.243C102.471 202.029 103.919 203.477 105.707 203.477Z" fill="#3056D3"/>
<path d="M204.936 241.797H102.471V242.757H204.936V241.797Z" fill="#CCCCCC"/>
<path d="M105.707 235.811C107.494 235.811 108.943 234.363 108.943 232.577C108.943 230.791 107.494 229.344 105.707 229.344C103.919 229.344 102.471 230.791 102.471 232.577C102.471 234.363 103.919 235.811 105.707 235.811Z" fill="#3056D3"/>
<path d="M203.061 278.617H170.679C170.12 278.617 169.583 278.394 169.188 277.999C168.792 277.604 168.57 277.068 168.569 276.509V265.168C168.57 264.609 168.792 264.073 169.188 263.678C169.583 263.283 170.12 263.06 170.679 263.06H203.061C203.62 263.06 204.157 263.283 204.552 263.678C204.948 264.073 205.17 264.609 205.171 265.168V276.509C205.17 277.068 204.948 277.604 204.552 277.999C204.157 278.394 203.62 278.617 203.061 278.617Z" fill="#3056D3"/>
<path d="M116.261 203.477C118.048 203.477 119.497 202.029 119.497 200.243C119.497 198.457 118.048 197.01 116.261 197.01C114.474 197.01 113.025 198.457 113.025 200.243C113.025 202.029 114.474 203.477 116.261 203.477Z" fill="#3056D3"/>
<path d="M126.817 203.477C128.604 203.477 130.053 202.029 130.053 200.243C130.053 198.457 128.604 197.01 126.817 197.01C125.03 197.01 123.581 198.457 123.581 200.243C123.581 202.029 125.03 203.477 126.817 203.477Z" fill="#3056D3"/>
<path d="M116.261 235.811C118.048 235.811 119.497 234.363 119.497 232.577C119.497 230.791 118.048 229.344 116.261 229.344C114.474 229.344 113.025 230.791 113.025 232.577C113.025 234.363 114.474 235.811 116.261 235.811Z" fill="#3056D3"/>
<path d="M126.817 235.811C128.604 235.811 130.053 234.363 130.053 232.577C130.053 230.791 128.604 229.344 126.817 229.344C125.03 229.344 123.581 230.791 123.581 232.577C123.581 234.363 125.03 235.811 126.817 235.811Z" fill="#3056D3"/>
<path d="M264.742 229.309C264.972 229.414 265.193 229.537 265.404 229.678L286.432 220.709L287.183 215.174L295.585 215.123L295.089 227.818L267.334 235.153C267.275 235.345 267.205 235.535 267.124 235.719C266.722 236.574 266.077 237.292 265.269 237.783C264.46 238.273 263.525 238.514 262.58 238.475C261.636 238.436 260.723 238.119 259.958 237.563C259.193 237.008 258.61 236.239 258.28 235.353C257.951 234.467 257.892 233.504 258.108 232.584C258.325 231.664 258.809 230.829 259.5 230.183C260.19 229.538 261.056 229.11 261.989 228.955C262.922 228.799 263.879 228.922 264.742 229.309Z" fill="#FFB8B8"/>
<path d="M298.641 344.352H292.893L290.159 322.198L298.642 322.198L298.641 344.352Z" fill="#FFB8B8"/>
<path d="M288.788 342.711H299.873V349.685H281.809C281.809 347.835 282.544 346.062 283.853 344.754C285.162 343.446 286.937 342.711 288.788 342.711Z" fill="#1C2434"/>
<path d="M320.996 342.729L315.275 343.292L310.38 321.513L318.823 320.682L320.996 342.729Z" fill="#FFB8B8"/>
<path d="M311.029 342.061L322.06 340.975L322.745 347.916L304.767 349.685C304.677 348.774 304.768 347.854 305.034 346.977C305.3 346.101 305.736 345.285 306.318 344.577C306.899 343.869 307.615 343.283 308.423 342.851C309.231 342.419 310.117 342.151 311.029 342.061Z" fill="#1C2434"/>
<path d="M300.241 191.677C306.6 191.677 311.756 186.525 311.756 180.17C311.756 173.815 306.6 168.663 300.241 168.663C293.881 168.663 288.726 173.815 288.726 180.17C288.726 186.525 293.881 191.677 300.241 191.677Z" fill="#FFB8B8"/>
<path d="M291.609 339.872C291.115 339.873 290.637 339.7 290.258 339.383C289.879 339.066 289.625 338.626 289.539 338.139C286.564 321.636 276.84 267.676 276.607 266.181C276.602 266.147 276.599 266.112 276.6 266.077V262.054C276.599 261.907 276.645 261.764 276.731 261.645L278.015 259.847C278.076 259.761 278.156 259.689 278.249 259.639C278.342 259.588 278.446 259.559 278.551 259.554C285.876 259.211 309.862 258.206 311.021 259.652C312.185 261.106 311.774 265.512 311.68 266.38L311.684 266.471L322.461 335.337C322.545 335.886 322.409 336.446 322.084 336.896C321.758 337.347 321.267 337.65 320.719 337.742L313.988 338.85C313.487 338.931 312.973 338.829 312.541 338.563C312.108 338.297 311.786 337.885 311.632 337.401C309.55 330.754 302.57 308.393 300.151 299.741C300.135 299.686 300.101 299.639 300.053 299.607C300.006 299.576 299.948 299.563 299.892 299.571C299.836 299.579 299.784 299.608 299.747 299.651C299.71 299.694 299.69 299.749 299.691 299.806C299.812 308.054 300.104 329.098 300.205 336.366L300.216 337.148C300.22 337.678 300.025 338.191 299.67 338.584C299.315 338.978 298.825 339.224 298.297 339.274L291.806 339.863C291.74 339.869 291.674 339.872 291.609 339.872Z" fill="#1C2434"/>
<path d="M292.933 196.201C290.924 197.395 289.721 199.588 289.031 201.821C287.754 205.953 286.985 210.226 286.741 214.545L286.012 227.475L276.984 261.755C284.809 268.37 289.322 266.867 299.855 261.455C310.387 256.044 311.591 263.26 311.591 263.26L313.697 234.092L316.706 202.219C316.031 201.407 315.266 200.672 314.427 200.03C311.645 197.868 308.409 196.366 304.962 195.636C301.516 194.906 297.948 194.967 294.528 195.815L292.933 196.201Z" fill="#3056D3"/>
<path d="M290.001 236.232C290.244 236.324 290.479 236.434 290.704 236.562L311.497 226.163L311.842 220.529L320.419 219.938L320.878 232.781L293.092 241.963C292.865 242.935 292.347 243.816 291.608 244.487C290.868 245.158 289.941 245.588 288.951 245.72C287.96 245.852 286.953 245.68 286.063 245.226C285.173 244.772 284.442 244.058 283.968 243.179C283.494 242.301 283.299 241.298 283.409 240.306C283.519 239.313 283.928 238.378 284.583 237.624C285.238 236.869 286.107 236.332 287.075 236.084C288.043 235.835 289.063 235.887 290.001 236.232Z" fill="#FFB8B8"/>
<path d="M316.555 202.365C321.671 204.17 322.572 223.716 322.572 223.716C316.553 220.409 309.331 225.821 309.331 225.821C309.331 225.821 307.827 220.709 306.021 214.094C305.476 212.233 305.411 210.265 305.831 208.372C306.252 206.479 307.146 204.724 308.428 203.269C308.428 203.269 311.439 200.56 316.555 202.365Z" fill="#3056D3"/>
<path d="M310.566 183.213C309.132 182.066 307.174 184.151 307.174 184.151L306.026 173.828C306.026 173.828 298.853 174.687 294.261 173.542C289.67 172.396 288.953 177.7 288.953 177.7C288.716 175.557 288.668 173.399 288.81 171.248C289.096 168.667 292.827 166.087 299.427 164.366C306.026 162.646 309.47 170.101 309.47 170.101C314.061 172.395 312.001 184.36 310.566 183.213Z" fill="#1C2434"/>
</svg>
